{
    "asset" : {
        "extensions" : {
            "ASOBO_normal_map_convention" : {
                "tangent_space_convention" : "DirectX"
            }
        },
        "generator" : "Khronos glTF Blender I/O v3.3.36 and Asobo Studio MSFS Blender I/O v1.3.0",
        "version" : "2.0"
    },
    "extensionsUsed" : [
        "ASOBO_normal_map_convention"
    ],
    "scene" : 0,
    "scenes" : [
        {
            "name" : "Scene",
            "nodes" : [
                5
            ]
        }
    ],
    "nodes" : [
        {
            "mesh" : 0,
            "name" : "node1"
        },
        {
            "mesh" : 1,
            "name" : "node2"
        },
        {
            "mesh" : 2,
            "name" : "node3"
        },
        {
            "mesh" : 3,
            "name" : "node4"
        },
        {
            "mesh" : 4,
            "name" : "node5"
        },
        {
            "children" : [
                0,
                1,
                2,
                3,
                4
            ],
            "name" : "node0"
        }
    ],
    "materials" : [
        {
            "doubleSided" : true,
            "emissiveFactor" : [
                1,
                1,
                1
            ],
            "emissiveTexture" : {
                "index" : 0
            },
            "name" : "m4mat",
            "pbrMetallicRoughness" : {
                "baseColorTexture" : {
                    "index" : 1
                },
                "metallicFactor" : 0,
                "roughnessFactor" : 0.5
            }
        },
        {
            "doubleSided" : true,
            "emissiveFactor" : [
                1,
                1,
                1
            ],
            "emissiveTexture" : {
                "index" : 2
            },
            "name" : "m0mat",
            "pbrMetallicRoughness" : {
                "baseColorTexture" : {
                    "index" : 3
                },
                "metallicFactor" : 0,
                "roughnessFactor" : 0.5
            }
        },
        {
            "doubleSided" : true,
            "emissiveFactor" : [
                1,
                1,
                1
            ],
            "emissiveTexture" : {
                "index" : 4
            },
            "name" : "m2mat",
            "pbrMetallicRoughness" : {
                "baseColorTexture" : {
                    "index" : 5
                },
                "metallicFactor" : 0,
                "roughnessFactor" : 0.5
            }
        },
        {
            "doubleSided" : true,
            "emissiveFactor" : [
                1,
                1,
                1
            ],
            "emissiveTexture" : {
                "index" : 6
            },
            "name" : "m1mat",
            "pbrMetallicRoughness" : {
                "baseColorTexture" : {
                    "index" : 7
                },
                "metallicFactor" : 0,
                "roughnessFactor" : 0.5
            }
        },
        {
            "doubleSided" : true,
            "emissiveFactor" : [
                1,
                1,
                1
            ],
            "emissiveTexture" : {
                "index" : 8
            },
            "name" : "m3mat",
            "pbrMetallicRoughness" : {
                "baseColorTexture" : {
                    "index" : 9
                },
                "metallicFactor" : 0,
                "roughnessFactor" : 0.5
            }
        }
    ],
    "meshes" : [
        {
            "name" : "meshId0_name",
            "primitives" : [
                {
                    "attributes" : {
                        "POSITION" : 0,
                        "NORMAL" : 1,
                        "TEXCOORD_0" : 2
                    },
                    "indices" : 3,
                    "material" : 0
                }
            ]
        },
        {
            "name" : "meshId1_name",
            "primitives" : [
                {
                    "attributes" : {
                        "POSITION" : 4,
                        "NORMAL" : 5,
                        "TEXCOORD_0" : 6
                    },
                    "indices" : 7,
                    "material" : 1
                }
            ]
        },
        {
            "name" : "meshId2_name",
            "primitives" : [
                {
                    "attributes" : {
                        "POSITION" : 8,
                        "NORMAL" : 9,
                        "TEXCOORD_0" : 10
                    },
                    "indices" : 11,
                    "material" : 2
                }
            ]
        },
        {
            "name" : "meshId3_name",
            "primitives" : [
                {
                    "attributes" : {
                        "POSITION" : 12,
                        "NORMAL" : 13,
                        "TEXCOORD_0" : 14
                    },
                    "indices" : 15,
                    "material" : 3
                }
            ]
        },
        {
            "name" : "meshId4_name",
            "primitives" : [
                {
                    "attributes" : {
                        "POSITION" : 16,
                        "NORMAL" : 17,
                        "TEXCOORD_0" : 18
                    },
                    "indices" : 19,
                    "material" : 4
                }
            ]
        }
    ],
    "textures" : [
        {
            "sampler" : 0,
            "source" : 0
        },
        {
            "sampler" : 0,
            "source" : 1
        },
        {
            "sampler" : 0,
            "source" : 2
        },
        {
            "sampler" : 0,
            "source" : 3
        },
        {
            "sampler" : 0,
            "source" : 4
        },
        {
            "sampler" : 0,
            "source" : 5
        },
        {
            "sampler" : 0,
            "source" : 6
        },
        {
            "sampler" : 0,
            "source" : 7
        },
        {
            "sampler" : 0,
            "source" : 8
        },
        {
            "sampler" : 0,
            "source" : 9
        }
    ],
    "images" : [
        {
            "mimeType" : "image/png",
            "name" : "terminal_lm",
            "uri" : "terminal_lm.png"
        },
        {
            "mimeType" : "image/png",
            "name" : "terminal",
            "uri" : "terminal.png"
        },
        {
            "mimeType" : "image/png",
            "name" : "etc01_lm",
            "uri" : "etc01_lm.png"
        },
        {
            "mimeType" : "image/png",
            "name" : "etc01",
            "uri" : "etc01.png"
        },
        {
            "mimeType" : "image/png",
            "name" : "oldter_lm",
            "uri" : "oldter_lm.png"
        },
        {
            "mimeType" : "image/png",
            "name" : "oldter",
            "uri" : "oldter.png"
        },
        {
            "mimeType" : "image/png",
            "name" : "gate_lm",
            "uri" : "gate_lm.png"
        },
        {
            "mimeType" : "image/png",
            "name" : "gate",
            "uri" : "gate.png"
        },
        {
            "mimeType" : "image/png",
            "name" : "rkjjsprite_lm",
            "uri" : "rkjjsprite_lm.png"
        },
        {
            "mimeType" : "image/png",
            "name" : "rkjjsprite",
            "uri" : "rkjjsprite.png"
        }
    ],
    "accessors" : [
        {
            "bufferView" : 0,
            "componentType" : 5126,
            "count" : 12458,
            "max" : [
                257.53875732421875,
                17.130590438842773,
                54.19371032714844
            ],
            "min" : [
                -97.83898162841797,
                -0.007280000485479832,
                -17.34623908996582
            ],
            "type" : "VEC3"
        },
        {
            "bufferView" : 1,
            "componentType" : 5126,
            "count" : 12458,
            "type" : "VEC3"
        },
        {
            "bufferView" : 2,
            "componentType" : 5126,
            "count" : 12458,
            "type" : "VEC2"
        },
        {
            "bufferView" : 3,
            "componentType" : 5123,
            "count" : 18552,
            "type" : "SCALAR"
        },
        {
            "bufferView" : 4,
            "componentType" : 5126,
            "count" : 1982,
            "max" : [
                265.4941101074219,
                14.021650314331055,
                41.45695114135742
            ],
            "min" : [
                -121.94490051269531,
                0.0024200002662837505,
                -89.50930786132812
            ],
            "type" : "VEC3"
        },
        {
            "bufferView" : 5,
            "componentType" : 5126,
            "count" : 1982,
            "type" : "VEC3"
        },
        {
            "bufferView" : 6,
            "componentType" : 5126,
            "count" : 1982,
            "type" : "VEC2"
        },
        {
            "bufferView" : 7,
            "componentType" : 5123,
            "count" : 2742,
            "type" : "SCALAR"
        },
        {
            "bufferView" : 8,
            "componentType" : 5126,
            "count" : 4177,
            "max" : [
                259.6025085449219,
                16.300189971923828,
                53.27806854248047
            ],
            "min" : [
                -33.138771057128906,
                0.0024300003424286842,
                -17.20085906982422
            ],
            "type" : "VEC3"
        },
        {
            "bufferView" : 9,
            "componentType" : 5126,
            "count" : 4177,
            "type" : "VEC3"
        },
        {
            "bufferView" : 10,
            "componentType" : 5126,
            "count" : 4177,
            "type" : "VEC2"
        },
        {
            "bufferView" : 11,
            "componentType" : 5123,
            "count" : 5370,
            "type" : "SCALAR"
        },
        {
            "bufferView" : 12,
            "componentType" : 5126,
            "count" : 6640,
            "max" : [
                265.7002868652344,
                17.03042984008789,
                51.54127502441406
            ],
            "min" : [
                -136.72618103027344,
                -0.007280000485479832,
                -180.82589721679688
            ],
            "type" : "VEC3"
        },
        {
            "bufferView" : 13,
            "componentType" : 5126,
            "count" : 6640,
            "type" : "VEC3"
        },
        {
            "bufferView" : 14,
            "componentType" : 5126,
            "count" : 6640,
            "type" : "VEC2"
        },
        {
            "bufferView" : 15,
            "componentType" : 5123,
            "count" : 8976,
            "type" : "SCALAR"
        },
        {
            "bufferView" : 16,
            "componentType" : 5126,
            "count" : 844,
            "max" : [
                261.9726867675781,
                16.52389907836914,
                53.21673583984375
            ],
            "min" : [
                -113.67040252685547,
                0.0024300003424286842,
                -97.90572357177734
            ],
            "type" : "VEC3"
        },
        {
            "bufferView" : 17,
            "componentType" : 5126,
            "count" : 844,
            "type" : "VEC3"
        },
        {
            "bufferView" : 18,
            "componentType" : 5126,
            "count" : 844,
            "type" : "VEC2"
        },
        {
            "bufferView" : 19,
            "componentType" : 5123,
            "count" : 1134,
            "type" : "SCALAR"
        }
    ],
    "bufferViews" : [
        {
            "buffer" : 0,
            "byteLength" : 149496,
            "byteOffset" : 0,
            "target" : 34962
        },
        {
            "buffer" : 0,
            "byteLength" : 149496,
            "byteOffset" : 149496,
            "target" : 34962
        },
        {
            "buffer" : 0,
            "byteLength" : 99664,
            "byteOffset" : 298992,
            "target" : 34962
        },
        {
            "buffer" : 0,
            "byteLength" : 37104,
            "byteOffset" : 398656,
            "target" : 34963
        },
        {
            "buffer" : 0,
            "byteLength" : 23784,
            "byteOffset" : 435760,
            "target" : 34962
        },
        {
            "buffer" : 0,
            "byteLength" : 23784,
            "byteOffset" : 459544,
            "target" : 34962
        },
        {
            "buffer" : 0,
            "byteLength" : 15856,
            "byteOffset" : 483328,
            "target" : 34962
        },
        {
            "buffer" : 0,
            "byteLength" : 5484,
            "byteOffset" : 499184,
            "target" : 34963
        },
        {
            "buffer" : 0,
            "byteLength" : 50124,
            "byteOffset" : 504668,
            "target" : 34962
        },
        {
            "buffer" : 0,
            "byteLength" : 50124,
            "byteOffset" : 554792,
            "target" : 34962
        },
        {
            "buffer" : 0,
            "byteLength" : 33416,
            "byteOffset" : 604916,
            "target" : 34962
        },
        {
            "buffer" : 0,
            "byteLength" : 10740,
            "byteOffset" : 638332,
            "target" : 34963
        },
        {
            "buffer" : 0,
            "byteLength" : 79680,
            "byteOffset" : 649072,
            "target" : 34962
        },
        {
            "buffer" : 0,
            "byteLength" : 79680,
            "byteOffset" : 728752,
            "target" : 34962
        },
        {
            "buffer" : 0,
            "byteLength" : 53120,
            "byteOffset" : 808432,
            "target" : 34962
        },
        {
            "buffer" : 0,
            "byteLength" : 17952,
            "byteOffset" : 861552,
            "target" : 34963
        },
        {
            "buffer" : 0,
            "byteLength" : 10128,
            "byteOffset" : 879504,
            "target" : 34962
        },
        {
            "buffer" : 0,
            "byteLength" : 10128,
            "byteOffset" : 889632,
            "target" : 34962
        },
        {
            "buffer" : 0,
            "byteLength" : 6752,
            "byteOffset" : 899760,
            "target" : 34962
        },
        {
            "buffer" : 0,
            "byteLength" : 2268,
            "byteOffset" : 906512,
            "target" : 34963
        }
    ],
    "samplers" : [
        {
            "magFilter" : 9729,
            "minFilter" : 9987
        }
    ],
    "buffers" : [
        {
            "byteLength" : 908780,
            "uri" : "terminal.bin"
        }
    ]
}
